Coordinates
version=1
nRows=13
nColumns=22
inDegrees=yes

Units are S.I. units (second, meters, Newtons, ...)
If the header above contains a line with 'inDegrees', this indicates whether rotational values are in degrees (yes) or radians (no).

endheader
time	pelvis_tilt	pelvis_list	pelvis_rotation	pelvis_tx	pelvis_ty	pelvis_tz	hip_flexion_r	hip_adduction_r	hip_rotation_r	knee_angle_r	ankle_angle_r	subtalar_angle_r	hip_flexion_l	hip_adduction_l	hip_rotation_l	knee_angle_l	ankle_angle_l	subtalar_angle_l	lumbar_extension	lumbar_bending	lumbar_rotation
      3.36000000	      2.54427263	      8.86412699	    158.72676271	      0.56234593	      0.90991505	     -0.56347951	    -10.81004733	      5.45894804	     -8.63117540	     -6.46877289	     15.28923634	      7.77941060	     33.16731501	     -5.25346896	     -5.72755696	    -26.55986290	      4.08292126	     -5.60674951	    -11.92396990	      3.40937919	      7.25078829
      3.37000000	      2.67513141	      8.90805011	    158.70475645	      0.55323758	      0.90753254	     -0.56651477	    -11.29364224	      5.49570115	     -8.59256997	     -6.61168712	     15.84041549	      7.96263450	     33.05435239	     -5.95040198	     -7.44018128	    -23.75727877	      4.58502323	     -6.13991921	    -11.63986771	      3.36536524	      7.74402488
      3.38000000	      2.84620356	      8.92951087	    158.66085271	      0.54396442	      0.90493727	     -0.56944249	    -11.65915214	      5.49617168	     -8.54935294	     -6.90397728	     16.53965271	      8.13909308	     33.07089258	     -6.63595106	     -9.50635676	    -21.41458139	      5.07923435	     -6.33121018	    -11.29373173	      3.32095740	      8.22028919
      3.39000000	      2.87488592	      8.90281656	    158.64732468	      0.53441728	      0.90249827	     -0.57216083	    -12.13600622	      5.37153273	     -8.52051523	     -7.23948891	     17.12876351	      8.39066840	     32.97495548	     -7.17218996	    -11.81125353	    -19.45729344	      5.54973061	     -6.62481291	    -11.07566347	      3.17491686	      8.61040711
      3.40000000	      2.91739473	      8.84665195	    158.64377973	      0.52471689	      0.89995457	     -0.57469986	    -12.53754515	      5.20173921	     -8.47687491	     -7.68432460	     17.77316252	      8.62651426	     32.99121509	     -7.63962253	    -14.16881363	    -18.02651635	      5.95925766	     -6.72185788	    -10.83130187	      3.00966838	      8.95235023
      3.41000000	      2.92400767	      8.75821684	    158.67490754	      0.51480733	      0.89742005	     -0.57705946	    -12.94242589	      4.97351997	     -8.43448873	     -8.18594015	     18.36921805	      8.85524744	     33.05256545	     -8.01916136	    -16.44659921	    -17.11381385	      6.30861067	     -6.76497737	    -10.60849752	      2.79911746	      9.21670330
      3.42000000	      2.92023076	      8.64854187	    158.74328255	      0.50468836	      0.89488093	     -0.57927328	    -13.33084377	      4.71259712	     -8.38216038	     -8.74510438	     18.90075917	      9.04939254	     33.18169450	     -8.34656548	    -18.52016793	    -16.72786956	      6.59823070	     -6.80802654	    -10.38350330	      2.55983081	      9.40017973
      3.43000000	      2.86455026	      8.51989173	    158.87945807	      0.49425591	      0.89243305	     -0.58134205	    -13.78815785	      4.41643086	     -8.35289286	     -9.29046370	     19.31514921	      9.26108356	     33.31931785	     -8.61485581	    -20.34981171	    -16.84108903	      6.76502653	     -6.93823167	    -10.18879538	      2.27519928	      9.49629348
      3.44000000	      2.80308216	      8.38650554	    159.07615654	      0.48353925	      0.89002870	     -0.58330076	    -14.25183588	      4.11738950	     -8.35766651	     -9.86038866	     19.60416179	      9.43843345	     33.51808825	     -8.87115266	    -21.89382382	    -17.45055696	      6.83369755	     -7.13601675	     -9.98344902	      1.97198075	      9.52342452
      3.45000000	      2.69670028	      8.22062151	    159.35090400	      0.47243348	      0.88778295	     -0.58509325	    -14.79556113	      3.77897542	     -8.34701788	    -10.38035139	     19.77000685	      9.74231872	     33.69666484	     -9.05493262	    -23.19422767	    -18.42480410	      6.68044690	     -7.65947791	     -9.78632153	      1.61735143	      9.41900867
      3.46000000	      2.60455467	      8.05262798	    159.70350115	      0.46100627	      0.88563425	     -0.58670564	    -15.31866932	      3.45106182	     -8.37777190	    -10.94300211	     19.76068099	     10.04269994	     33.94558691	     -9.21602116	    -24.21326452	    -19.77409218	      6.36975495	     -8.34177007	     -9.55857827	      1.26382870	      9.22340275
      3.47000000	      2.53361161	      7.83446173	    160.12636709	      0.44921604	      0.88362604	     -0.58812268	    -15.83042515	      3.09378639	     -8.38581961	    -11.48583432	     19.62065739	     10.36308793	     34.25340974	     -9.29281900	    -24.99208470	    -21.37324562	      5.83680965	     -9.15727000	     -9.26129831	      0.86297649	      8.94665251
      3.48000000	      2.47846218	      7.58647189	    160.65489127	      0.43710170	      0.88183205	     -0.58923126	    -16.31325467	      2.72974654	     -8.42999166	    -12.06135127	     19.27291024	     10.73879869	     34.60922708	     -9.24641677	    -25.44069521	    -23.12213996	      5.12124529	    -10.18871538	     -8.92457350	      0.44255964	      8.54833893
